<svg xmlns="http://www.w3.org/2000/svg" viewBox="0 0 375.64 127.73"><defs><style>.cls-1{fill:#dc1e3d;}.cls-2{fill:#39b54a;}.cls-3{fill:#e54695;}.cls-4{font-size:99px;fill:#231f20;font-family:CalistoMT, Calisto MT;}.cls-5{letter-spacing:-0.05em;}</style></defs><g id="Layer_2" data-name="Layer 2"><g id="Layer_1-2" data-name="Layer 1"><path class="cls-1" d="M16.46,64.21a23,23,0,0,1,1.87-9,3.1,3.1,0,0,0,0-2.77,21.66,21.66,0,0,1-1.74-10.71,2.69,2.69,0,0,1,.9-1.7A18.13,18.13,0,0,1,27,36.17a2.54,2.54,0,0,0,2.07-1.26,20.86,20.86,0,0,1,7.57-7,2.48,2.48,0,0,1,2.56,0A21,21,0,0,1,46.86,35a2.29,2.29,0,0,0,1.88,1.16,19,19,0,0,1,9.49,3.64A2.59,2.59,0,0,1,59.39,42,23.34,23.34,0,0,1,57.6,52.27a3.4,3.4,0,0,0,0,3,23.28,23.28,0,0,1,1.81,10.27,2.62,2.62,0,0,1-1.21,2.28c-5.53,3.75-11.49,5-17.82,2.51a5.94,5.94,0,0,0-4.85,0c-6.46,2.5-12.5,1.2-18.08-2.71C16.12,66.69,16.67,65.28,16.46,64.21ZM37.94,31A17.88,17.88,0,0,0,31,38a2.45,2.45,0,0,1-2.29,1.35,15.47,15.47,0,0,0-8.31,2.6,1.77,1.77,0,0,0-.67,1.23,17.83,17.83,0,0,0,1.8,8.54,4.33,4.33,0,0,1,0,4.27,18.28,18.28,0,0,0-1.79,8.55,1.55,1.55,0,0,0,.52,1.09c4.52,3,11.43,4,16.52.44a1.84,1.84,0,0,1,2.3,0c5,3.53,11.91,2.62,16.42-.4a1.5,1.5,0,0,0,.56-1.08,17.49,17.49,0,0,0-1.76-8.67,4.3,4.3,0,0,1,0-4.25A17.63,17.63,0,0,0,56.07,43a1.53,1.53,0,0,0-.61-1.06,15.08,15.08,0,0,0-8-2.57,3,3,0,0,1-2.82-1.65A17.41,17.41,0,0,0,37.94,31Z"/><path class="cls-2" d="M0,69.54a17.17,17.17,0,0,1,1.75-7.36,2,2,0,0,0,.05-1.91,14.31,14.31,0,0,1-1.1-7.74,2.76,2.76,0,0,1,1.1-1.7,16.54,16.54,0,0,1,7.63-2.91,2.35,2.35,0,0,0,1.85-1.09,1.68,1.68,0,0,1,2.51-.62c.78.61.76,1.43.14,2.52a4.86,4.86,0,0,1-4,2.46A26.26,26.26,0,0,0,4.35,53.1c-.25.1-.46.64-.47,1a11.21,11.21,0,0,0,1.35,5.76,2.64,2.64,0,0,1-.06,2.87,11.71,11.71,0,0,0-1.76,5.89,1.47,1.47,0,0,0,.67,1.07,12,12,0,0,0,6,1.38,2.42,2.42,0,0,1,2.34,1.26,12.21,12.21,0,0,0,4.27,4.12,1.29,1.29,0,0,0,1.65-.06c1-.81,2.1-1.6,3.09-2.46s1.84-1,2.59-.32.72,1.78-.33,2.64c-1.57,1.28-3.25,2.43-4.91,3.6a2.35,2.35,0,0,1-2.55,0,17,17,0,0,1-5.86-4.72,2.69,2.69,0,0,0-1.67-.86,18.24,18.24,0,0,1-6.88-2.06C.52,71.53-.17,70.64,0,69.54Z"/><path class="cls-2" d="M23.76,19.72c.58,1.93,1.08,3.9,1.78,5.79a3.73,3.73,0,0,1,0,3,27.81,27.81,0,0,0-1.3,4.31c-.31,1.3-1,2.07-1.95,1.91s-1.62-1.1-1.29-2.46c.36-1.53.87-3,1.25-4.56a2.6,2.6,0,0,0,0-1.49,19.45,19.45,0,0,1-1.39-8.3,2.34,2.34,0,0,1,1.07-2,14.65,14.65,0,0,1,6.85-2.73,2.59,2.59,0,0,0,2.07-1.28,15.62,15.62,0,0,1,5.67-5.1,2.09,2.09,0,0,1,2.23,0,15.52,15.52,0,0,1,5.68,5.08,2.73,2.73,0,0,0,2.16,1.34,14.32,14.32,0,0,1,6.74,2.7c1.1.78,1.4,1.61.85,2.46s-1.52,1-2.66.23a12.78,12.78,0,0,0-7-2.36,2.25,2.25,0,0,1-2-1.28,14.18,14.18,0,0,0-4.15-4.57,1.17,1.17,0,0,0-1.6,0,13.37,13.37,0,0,0-4,4.39,2.49,2.49,0,0,1-2.23,1.44,12.5,12.5,0,0,0-5.52,1.51c-.78.42-1.28.9-1,1.88Z"/><path class="cls-2" d="M75.24,29.51a17.32,17.32,0,0,1-1.71,7.29,2.06,2.06,0,0,0-.08,2,14.3,14.3,0,0,1,1.2,6.39c0,1.14-.62,1.81-1.58,1.82a1.59,1.59,0,0,1-1.63-1.77,13.06,13.06,0,0,0-1.55-6.4A2.22,2.22,0,0,1,70,36.5a13.71,13.71,0,0,0,1.87-6c0-.63-.12-1-.74-1.19a40.26,40.26,0,0,0-5.56-1.28,4.07,4.07,0,0,1-3.06-1.68,35.56,35.56,0,0,0-4-3.75c-.5-.44-1-.32-1.54,0A15,15,0,0,0,52.36,27,3,3,0,0,1,50,28.51a35.21,35.21,0,0,0-3.77.71,1.7,1.7,0,0,1-2.16-1.11,1.61,1.61,0,0,1,1.24-2c1.15-.33,2.35-.5,3.51-.84a2.66,2.66,0,0,0,1.34-.8,19.84,19.84,0,0,1,6.4-5.3,2.43,2.43,0,0,1,2.35-.07,15.29,15.29,0,0,1,5.94,4.77,2.13,2.13,0,0,0,1.8.93,16.4,16.4,0,0,1,6.77,2C74.75,27.5,75.45,28.41,75.24,29.51Z"/><path class="cls-2" d="M74.94,54.4c-.48,1.92-.85,3.8-1.43,5.61a2.89,2.89,0,0,0,.11,2.44,16.07,16.07,0,0,1,1.59,7.33A2.27,2.27,0,0,1,74,71.9a17,17,0,0,1-7.47,2.38,2.46,2.46,0,0,0-1.57.83,16.31,16.31,0,0,1-5.34,4.47c-1.09.57-2,.42-2.49-.4s-.23-1.81.91-2.43a13,13,0,0,0,5-4.64,2.16,2.16,0,0,1,2.1-1,13.7,13.7,0,0,0,6-1.32c.62-.28.91-.66.74-1.29a35.36,35.36,0,0,0-1.57-5.25,4.29,4.29,0,0,1-.12-3.81,25.93,25.93,0,0,0,1.19-5.35,1.34,1.34,0,0,0-.6-1,13.8,13.8,0,0,0-6-1.94,10.05,10.05,0,0,1-1.34-.19,1.5,1.5,0,0,1-1.33-1.69,1.47,1.47,0,0,1,1.58-1.46,16.62,16.62,0,0,1,10.09,3.44C74.56,51.75,74.57,53.25,74.94,54.4Z"/><path class="cls-2" d="M17.69,18.65c.39.32,1.07.61,1.22,1.07a3.42,3.42,0,0,1-.26,1.77c0,.17-.33.31-.53.4A14.21,14.21,0,0,0,12,27.15a2.61,2.61,0,0,1-1.84.79,15.8,15.8,0,0,0-6,1.34c-.68.3-1,.7-.78,1.37a48.42,48.42,0,0,0,1.74,5.56,3.21,3.21,0,0,1,.06,3.08A11.52,11.52,0,0,0,3.93,46c0,.15,0,.3,0,.45A1.73,1.73,0,0,1,2.4,48.3,1.75,1.75,0,0,1,.7,46.53a15.13,15.13,0,0,1,1.15-7.75,2,2,0,0,0-.07-1.91A16.66,16.66,0,0,1,.06,29.34a2.34,2.34,0,0,1,1.27-2.22,17.19,17.19,0,0,1,7.48-2.35,2.51,2.51,0,0,0,1.56-.87,16,16,0,0,1,6.08-4.78C16.79,19,17.15,18.86,17.69,18.65Z"/><path class="cls-1" d="M36.31,23.86a9.69,9.69,0,0,1,0-2.25c.1-.43.63-.75,1-1.13.33.38.84.7.94,1.13a10.34,10.34,0,0,1,0,2.25,10.11,10.11,0,0,1,2.22,0c.44.1.78.59,1.17.91-.36.36-.71,1-1.08,1-2.18.1-4.37.1-6.55,0-.39,0-.76-.64-1.14-1,.38-.33.72-.84,1.15-1A10.11,10.11,0,0,1,36.31,23.86Z"/><path class="cls-1" d="M59.58,35.34c.61-.55,1.12-1,1.66-1.5s1.14-.55,1.46,0a1.68,1.68,0,0,1-.17,1.45A9.87,9.87,0,0,1,61,36.86a10.14,10.14,0,0,1,1.42,1.65c.22.39.08,1,.1,1.49-.51,0-1.21.12-1.48-.15-1.54-1.55-3-3.16-4.43-4.84-.25-.29,0-1,0-1.48.48,0,1.05,0,1.4.19A12.3,12.3,0,0,1,59.58,35.34Z"/><path class="cls-1" d="M38.32,75.2a10.44,10.44,0,0,1,0,2.19,1.69,1.69,0,0,1-.91,1.12c-.74.18-1-.43-1.06-1.11s0-1.35,0-2.21a9.62,9.62,0,0,1-2.16,0c-.45-.1-1.07-.52-1.15-.9-.15-.7.47-1.06,1.14-1.07,2.14,0,4.29-.06,6.43,0a1.56,1.56,0,0,1,1.09,1c.15.75-.49,1-1.17,1Z"/><path class="cls-1" d="M14.56,37.57a12.19,12.19,0,0,1-1.93-1.21c-.31-.28-.33-.87-.48-1.32.49-.12,1-.44,1.45-.33a9.56,9.56,0,0,1,2,1.06,11.59,11.59,0,0,1,1.2-1.9c.28-.31.86-.35,1.31-.52.14.49.54,1.12.37,1.44-1,2-2.14,3.89-3.33,5.77-.18.3-.87.28-1.32.42-.13-.46-.45-1-.33-1.37A11.29,11.29,0,0,1,14.56,37.57Z"/><path class="cls-1" d="M12.44,61.48a11.81,11.81,0,0,1-1.09-2c-.12-.39.18-.91.29-1.37.46.11,1.11.08,1.33.37a11.7,11.7,0,0,1,1.63,2.82,1.69,1.69,0,0,1-.43,1.5,6.64,6.64,0,0,1-2.23,1.29c-.41.14-1-.17-1.47-.27A4.31,4.31,0,0,1,11,62.39,6,6,0,0,1,12.44,61.48Z"/><path class="cls-1" d="M64.12,61.48a6.66,6.66,0,0,1,1.51,1,3.88,3.88,0,0,1,.47,1.33c-.49.12-1.06.46-1.46.31a12.1,12.1,0,0,1-2.35-1.31,1,1,0,0,1-.37-1.56,25.92,25.92,0,0,1,1.56-2.6,1.55,1.55,0,0,1,1.36-.5c.69.24.64.92.32,1.52S64.5,60.81,64.12,61.48Z"/><path class="cls-1" d="M44.92,50.55a2.81,2.81,0,0,1-1.65,2.63c-2.22,1.23-2.22,1.24-3.37,3.35a2.53,2.53,0,0,1-2.23,1.65,2.29,2.29,0,0,1-2.29-1.71,4.19,4.19,0,0,0-3.11-3.19A2.33,2.33,0,0,1,30.4,51a2.43,2.43,0,0,1,1.92-2.38c1.55-.48,2.63-1.25,2.91-2.93a2.12,2.12,0,0,1,.43-.79c1.05-1.56,3.13-1.71,3.85,0a7,7,0,0,0,4.27,4.23C44.34,49.3,44.66,50.2,44.92,50.55Zm-7.05-4.78-.55,0c-.28.84-.61,1.66-.82,2.51a1.73,1.73,0,0,1-1.45,1.48,21.19,21.19,0,0,0-2.67,1l0,.46a18.64,18.64,0,0,0,2.38.83,2,2,0,0,1,1.76,1.75,13,13,0,0,0,.89,2.41l.46,0a14,14,0,0,0,.85-2.37A2,2,0,0,1,40.48,52a20.86,20.86,0,0,0,2.4-.87l0-.48a16.52,16.52,0,0,0-2.39-.83,1.9,1.9,0,0,1-1.72-1.76A14,14,0,0,0,37.87,45.77Z"/><path class="cls-3" d="M37.68,63.43c-.55-.72-1.13-1.16-1.07-1.48a1.51,1.51,0,0,1,1.07-1c.31,0,1,.54,1,.9S38.19,62.69,37.68,63.43Z"/><path class="cls-3" d="M37.68,41.45c-.55-.71-1.13-1.16-1.07-1.47a1.52,1.52,0,0,1,1.07-1c.31,0,1,.55,1,.9S38.19,40.71,37.68,41.45Z"/><path class="cls-3" d="M27.82,51.17c-.39.28-.78.79-1.17.78s-1-.61-.94-.9a1.49,1.49,0,0,1,.9-1.11c.33-.07.79.48,1.2.75Z"/><path class="cls-3" d="M47.47,50.69c.4-.27.86-.82,1.2-.75a1.54,1.54,0,0,1,.9,1.1c0,.29-.6.9-.94.91s-.78-.49-1.18-.78Z"/><path class="cls-2" d="M55.06,73.06A1.53,1.53,0,0,0,53,72.12c-1.06.47-1,1.36-.89,2.31.21,1.33.47,2.67.59,4A1.54,1.54,0,0,1,52,79.58a11.25,11.25,0,0,1-5.88,1.77,2.49,2.49,0,0,0-2.23,1.44,13.4,13.4,0,0,1-4,4.4,1.18,1.18,0,0,1-1.6,0,13.78,13.78,0,0,1-4.08-4.48,2.42,2.42,0,0,0-2.15-1.39,12.68,12.68,0,0,1-7-2.39c-1.07-.76-2-.6-2.56.28s-.27,1.66.75,2.4a14.93,14.93,0,0,0,7.06,2.81,2.54,2.54,0,0,1,1.75,1A64.69,64.69,0,0,0,36.74,90a4.36,4.36,0,0,1,.37.38l0,0,.35.17,1.35,1,.56,0a11.48,11.48,0,0,1,1.42-1,1.85,1.85,0,0,1,.51-.59,18.68,18.68,0,0,0,4.8-4.75,2.35,2.35,0,0,1,1.41-.86,15.83,15.83,0,0,0,7.27-2.92,2.37,2.37,0,0,0,1-1.3A16,16,0,0,0,55.06,73.06Z"/><text class="cls-4" transform="translate(98.97 83.55)">GI<tspan class="cls-5" x="117.66" y="0">R</tspan><tspan x="183.93" y="0">C</tspan></text></g></g></svg>